<svg width="48" height="50" viewBox="0 0 48 50" fill="none" xmlns="http://www.w3.org/2000/svg">
<rect width="48" height="49.6" rx="4" fill="white"/>
<path d="M44 6.32111V29.4197C44 34.5277 42.113 38.3774 38.339 40.969C34.6065 43.523 29.8787 44.8 24.1555 44.8C18.4323 44.8 13.6423 43.5606 9.78538 41.0817C5.92846 38.6028 4 35.2413 4 30.9972C4 30.6591 4.12442 30.3775 4.37325 30.1521C4.66356 29.8892 4.99533 29.7577 5.36858 29.7577H18.0591C18.7227 29.7577 19.2203 29.908 19.5521 30.2084C19.9254 30.4713 20.2986 30.9784 20.6719 31.7296C21.0451 32.4432 21.4806 32.969 21.9782 33.307C22.5174 33.6451 23.2639 33.8141 24.2177 33.8141C26.6646 33.8141 27.888 32.2929 27.888 29.2507V16.2366H9.41213C8.95594 16.2366 8.56195 16.0864 8.23017 15.7859C7.89839 15.4854 7.7325 15.1286 7.7325 14.7155V6.32111C7.7325 5.90797 7.89839 5.55116 8.23017 5.25069C8.56195 4.95022 8.95594 4.79999 9.41213 4.79999H42.3204C42.7766 4.79999 43.1706 4.95022 43.5023 5.25069C43.8341 5.55116 44 5.90797 44 6.32111Z" fill="black"/>
</svg>
